<svg xmlns="http://www.w3.org/2000/svg" xmlns:xlink="http://www.w3.org/1999/xlink" xmlns:s="https://github.com/nturley/netlistsvg" width="608" height="428.5">
  <style>svg {
    stroke:#000;
    fill:none;
  }
  text {
    fill:#000;
    stroke:none;
    font-size:10px;
    font-weight: bold;
    font-family: "Courier New", monospace;
  }
  .nodelabel {
    text-anchor: middle;
  }
  .inputPortLabel {
    text-anchor: end;
  }
  .splitjoinBody {
    fill:#000;
  }</style>
  <g s:type="and" transform="translate(452.6666666666667,12)" s:width="30" s:height="25" id="cell_$abc$173$auto$blifparse.cc:386:parse_blif$174">
    <s:alias val="$and"/>
    <s:alias val="$logic_and"/>
    <s:alias val="$_AND_"/>
    <path d="M0,0 L0,25 L15,25 A15 12.5 0 0 0 15,0 Z" class="cell_$abc$173$auto$blifparse.cc:386:parse_blif$174"/>
    <g s:x="0" s:y="5" s:pid="A"/>
    <g s:x="0" s:y="20" s:pid="B"/>
    <g s:x="30" s:y="12.5" s:pid="Y"/>
  </g>
  <g s:type="nand" transform="translate(149,308)" s:width="30" s:height="25" id="cell_$abc$173$auto$blifparse.cc:386:parse_blif$175">
    <s:alias val="$nand"/>
    <s:alias val="$logic_nand"/>
    <s:alias val="$_NAND_"/>
    <s:alias val="$_ANDNOT_"/>
    <path d="M0,0 L0,25 L15,25 A15 12.5 0 0 0 15,0 Z" class="cell_$abc$173$auto$blifparse.cc:386:parse_blif$175"/>
    <circle cx="34" cy="12.5" r="3" class="cell_$abc$173$auto$blifparse.cc:386:parse_blif$175"/>
    <g s:x="0" s:y="5" s:pid="A"/>
    <g s:x="0" s:y="20" s:pid="B"/>
    <g s:x="36" s:y="12.5" s:pid="Y"/>
  </g>
  <g s:type="nand" transform="translate(149,248)" s:width="30" s:height="25" id="cell_$abc$173$auto$blifparse.cc:386:parse_blif$176">
    <s:alias val="$nand"/>
    <s:alias val="$logic_nand"/>
    <s:alias val="$_NAND_"/>
    <s:alias val="$_ANDNOT_"/>
    <path d="M0,0 L0,25 L15,25 A15 12.5 0 0 0 15,0 Z" class="cell_$abc$173$auto$blifparse.cc:386:parse_blif$176"/>
    <circle cx="34" cy="12.5" r="3" class="cell_$abc$173$auto$blifparse.cc:386:parse_blif$176"/>
    <g s:x="0" s:y="5" s:pid="A"/>
    <g s:x="0" s:y="20" s:pid="B"/>
    <g s:x="36" s:y="12.5" s:pid="Y"/>
  </g>
  <g s:type="reduce_nxor" transform="translate(220,255.5)" s:width="33" s:height="25" id="cell_$abc$173$auto$blifparse.cc:386:parse_blif$177">
    <s:alias val="$xnor"/>
    <s:alias val="$reduce_xnor"/>
    <s:alias val="$_XNOR_"/>
    <path d="M3,0 A30 25 0 0 1 3,25 A30 25 0 0 0 33,12.5 A30 25 0 0 0 3,0" class="cell_$abc$173$auto$blifparse.cc:386:parse_blif$177"/>
    <path d="M0,0 A30 25 0 0 1 0,25" class="cell_$abc$173$auto$blifparse.cc:386:parse_blif$177"/>
    <circle cx="35" cy="12.5" r="3" class="cell_$abc$173$auto$blifparse.cc:386:parse_blif$177"/>
    <g s:x="3" s:y="5" s:pid="A"/>
    <g s:x="3" s:y="20" s:pid="B"/>
    <g s:x="38" s:y="12.5" s:pid="Y"/>
  </g>
  <g s:type="and" transform="translate(151,124.5)" s:width="30" s:height="25" id="cell_$abc$173$auto$blifparse.cc:386:parse_blif$178">
    <s:alias val="$and"/>
    <s:alias val="$logic_and"/>
    <s:alias val="$_AND_"/>
    <path d="M0,0 L0,25 L15,25 A15 12.5 0 0 0 15,0 Z" class="cell_$abc$173$auto$blifparse.cc:386:parse_blif$178"/>
    <g s:x="0" s:y="5" s:pid="A"/>
    <g s:x="0" s:y="20" s:pid="B"/>
    <g s:x="30" s:y="12.5" s:pid="Y"/>
  </g>
  <g s:type="and" transform="translate(151,64.5)" s:width="30" s:height="25" id="cell_$abc$173$auto$blifparse.cc:386:parse_blif$179">
    <s:alias val="$and"/>
    <s:alias val="$logic_and"/>
    <s:alias val="$_AND_"/>
    <path d="M0,0 L0,25 L15,25 A15 12.5 0 0 0 15,0 Z" class="cell_$abc$173$auto$blifparse.cc:386:parse_blif$179"/>
    <g s:x="0" s:y="5" s:pid="A"/>
    <g s:x="0" s:y="20" s:pid="B"/>
    <g s:x="30" s:y="12.5" s:pid="Y"/>
  </g>
  <g s:type="and" transform="translate(222.66666666666666,195.5)" s:width="30" s:height="25" id="cell_$abc$173$auto$blifparse.cc:386:parse_blif$180">
    <s:alias val="$and"/>
    <s:alias val="$logic_and"/>
    <s:alias val="$_AND_"/>
    <path d="M0,0 L0,25 L15,25 A15 12.5 0 0 0 15,0 Z" class="cell_$abc$173$auto$blifparse.cc:386:parse_blif$180"/>
    <g s:x="0" s:y="5" s:pid="A"/>
    <g s:x="0" s:y="20" s:pid="B"/>
    <g s:x="30" s:y="12.5" s:pid="Y"/>
  </g>
  <g s:type="reduce_nxor" transform="translate(450,143)" s:width="33" s:height="25" id="cell_$abc$173$auto$blifparse.cc:386:parse_blif$181">
    <s:alias val="$xnor"/>
    <s:alias val="$reduce_xnor"/>
    <s:alias val="$_XNOR_"/>
    <path d="M3,0 A30 25 0 0 1 3,25 A30 25 0 0 0 33,12.5 A30 25 0 0 0 3,0" class="cell_$abc$173$auto$blifparse.cc:386:parse_blif$181"/>
    <path d="M0,0 A30 25 0 0 1 0,25" class="cell_$abc$173$auto$blifparse.cc:386:parse_blif$181"/>
    <circle cx="35" cy="12.5" r="3" class="cell_$abc$173$auto$blifparse.cc:386:parse_blif$181"/>
    <g s:x="3" s:y="5" s:pid="A"/>
    <g s:x="3" s:y="20" s:pid="B"/>
    <g s:x="38" s:y="12.5" s:pid="Y"/>
  </g>
  <g s:type="nand" transform="translate(222,340)" s:width="30" s:height="25" id="cell_$abc$173$auto$blifparse.cc:386:parse_blif$182">
    <s:alias val="$nand"/>
    <s:alias val="$logic_nand"/>
    <s:alias val="$_NAND_"/>
    <s:alias val="$_ANDNOT_"/>
    <path d="M0,0 L0,25 L15,25 A15 12.5 0 0 0 15,0 Z" class="cell_$abc$173$auto$blifparse.cc:386:parse_blif$182"/>
    <circle cx="34" cy="12.5" r="3" class="cell_$abc$173$auto$blifparse.cc:386:parse_blif$182"/>
    <g s:x="0" s:y="5" s:pid="A"/>
    <g s:x="0" s:y="20" s:pid="B"/>
    <g s:x="36" s:y="12.5" s:pid="Y"/>
  </g>
  <g s:type="or" transform="translate(310,285.5)" s:width="30" s:height="25" id="cell_$abc$173$auto$blifparse.cc:386:parse_blif$183">
    <s:alias val="$or"/>
    <s:alias val="$logic_or"/>
    <s:alias val="$_OR_"/>
    <path d="M0,25 L0,25 L15,25 A15 12.5 0 0 0 15,0 L0,0" class="cell_$abc$173$auto$blifparse.cc:386:parse_blif$183"/>
    <path d="M0,0 A30 25 0 0 1 0,25" class="cell_$abc$173$auto$blifparse.cc:386:parse_blif$183"/>
    <g s:x="3" s:y="5" s:pid="A"/>
    <g s:x="3" s:y="20" s:pid="B"/>
    <g s:x="30" s:y="12.5" s:pid="Y"/>
  </g>
  <g s:type="nand" transform="translate(308,203)" s:width="30" s:height="25" id="cell_$abc$173$auto$blifparse.cc:386:parse_blif$184">
    <s:alias val="$nand"/>
    <s:alias val="$logic_nand"/>
    <s:alias val="$_NAND_"/>
    <s:alias val="$_ANDNOT_"/>
    <path d="M0,0 L0,25 L15,25 A15 12.5 0 0 0 15,0 Z" class="cell_$abc$173$auto$blifparse.cc:386:parse_blif$184"/>
    <circle cx="34" cy="12.5" r="3" class="cell_$abc$173$auto$blifparse.cc:386:parse_blif$184"/>
    <g s:x="0" s:y="5" s:pid="A"/>
    <g s:x="0" s:y="20" s:pid="B"/>
    <g s:x="36" s:y="12.5" s:pid="Y"/>
  </g>
  <g s:type="nand" transform="translate(379,195.5)" s:width="30" s:height="25" id="cell_$abc$173$auto$blifparse.cc:386:parse_blif$185">
    <s:alias val="$nand"/>
    <s:alias val="$logic_nand"/>
    <s:alias val="$_NAND_"/>
    <s:alias val="$_ANDNOT_"/>
    <path d="M0,0 L0,25 L15,25 A15 12.5 0 0 0 15,0 Z" class="cell_$abc$173$auto$blifparse.cc:386:parse_blif$185"/>
    <circle cx="34" cy="12.5" r="3" class="cell_$abc$173$auto$blifparse.cc:386:parse_blif$185"/>
    <g s:x="0" s:y="5" s:pid="A"/>
    <g s:x="0" s:y="20" s:pid="B"/>
    <g s:x="36" s:y="12.5" s:pid="Y"/>
  </g>
  <g s:type="reduce_xor" transform="translate(451.6666666666667,203)" s:width="33" s:height="25" id="cell_$abc$173$auto$blifparse.cc:386:parse_blif$186">
    <s:alias val="$xor"/>
    <s:alias val="$reduce_xor"/>
    <s:alias val="$_XOR_"/>
    <path d="M3,0 A30 25 0 0 1 3,25 A30 25 0 0 0 33,12.5 A30 25 0 0 0 3,0" class="cell_$abc$173$auto$blifparse.cc:386:parse_blif$186"/>
    <path d="M0,0 A30 25 0 0 1 0,25" class="cell_$abc$173$auto$blifparse.cc:386:parse_blif$186"/>
    <g s:x="3" s:y="5" s:pid="A"/>
    <g s:x="3" s:y="20" s:pid="B"/>
    <g s:x="33" s:y="12.5" s:pid="Y"/>
  </g>
  <g s:type="reduce_xor" transform="translate(451.6666666666667,72)" s:width="33" s:height="25" id="cell_$abc$173$auto$blifparse.cc:386:parse_blif$187">
    <s:alias val="$xor"/>
    <s:alias val="$reduce_xor"/>
    <s:alias val="$_XOR_"/>
    <path d="M3,0 A30 25 0 0 1 3,25 A30 25 0 0 0 33,12.5 A30 25 0 0 0 3,0" class="cell_$abc$173$auto$blifparse.cc:386:parse_blif$187"/>
    <path d="M0,0 A30 25 0 0 1 0,25" class="cell_$abc$173$auto$blifparse.cc:386:parse_blif$187"/>
    <g s:x="3" s:y="5" s:pid="A"/>
    <g s:x="3" s:y="20" s:pid="B"/>
    <g s:x="33" s:y="12.5" s:pid="Y"/>
  </g>
  <g s:type="reduce_nor" transform="translate(379,391.5)" s:width="33" s:height="25" id="cell_$abc$173$auto$blifparse.cc:386:parse_blif$188">
    <s:alias val="$nor"/>
    <s:alias val="$reduce_nor"/>
    <s:alias val="$_NOR_"/>
    <s:alias val="$_ORNOT_"/>
    <path d="M0,25 L0,25 L15,25 A15 12.5 0 0 0 15,0 L0,0" class="cell_$abc$173$auto$blifparse.cc:386:parse_blif$188"/>
    <path d="M0,0 A30 25 0 0 1 0,25" class="cell_$abc$173$auto$blifparse.cc:386:parse_blif$188"/>
    <circle cx="34" cy="12.5" r="3" class="cell_$abc$173$auto$blifparse.cc:386:parse_blif$188"/>
    <g s:x="3" s:y="5" s:pid="A"/>
    <g s:x="3" s:y="20" s:pid="B"/>
    <g s:x="36" s:y="12.5" s:pid="Y"/>
  </g>
  <g s:type="or" transform="translate(310,347.5)" s:width="30" s:height="25" id="cell_$abc$173$auto$blifparse.cc:386:parse_blif$189">
    <s:alias val="$or"/>
    <s:alias val="$logic_or"/>
    <s:alias val="$_OR_"/>
    <path d="M0,25 L0,25 L15,25 A15 12.5 0 0 0 15,0 L0,0" class="cell_$abc$173$auto$blifparse.cc:386:parse_blif$189"/>
    <path d="M0,0 A30 25 0 0 1 0,25" class="cell_$abc$173$auto$blifparse.cc:386:parse_blif$189"/>
    <g s:x="3" s:y="5" s:pid="A"/>
    <g s:x="3" s:y="20" s:pid="B"/>
    <g s:x="30" s:y="12.5" s:pid="Y"/>
  </g>
  <g s:type="nand" transform="translate(379,331.5)" s:width="30" s:height="25" id="cell_$abc$173$auto$blifparse.cc:386:parse_blif$190">
    <s:alias val="$nand"/>
    <s:alias val="$logic_nand"/>
    <s:alias val="$_NAND_"/>
    <s:alias val="$_ANDNOT_"/>
    <path d="M0,0 L0,25 L15,25 A15 12.5 0 0 0 15,0 Z" class="cell_$abc$173$auto$blifparse.cc:386:parse_blif$190"/>
    <circle cx="34" cy="12.5" r="3" class="cell_$abc$173$auto$blifparse.cc:386:parse_blif$190"/>
    <g s:x="0" s:y="5" s:pid="A"/>
    <g s:x="0" s:y="20" s:pid="B"/>
    <g s:x="36" s:y="12.5" s:pid="Y"/>
  </g>
  <g s:type="or" transform="translate(452.6666666666667,339)" s:width="30" s:height="25" id="cell_$abc$173$auto$blifparse.cc:386:parse_blif$191">
    <s:alias val="$or"/>
    <s:alias val="$logic_or"/>
    <s:alias val="$_OR_"/>
    <path d="M0,25 L0,25 L15,25 A15 12.5 0 0 0 15,0 L0,0" class="cell_$abc$173$auto$blifparse.cc:386:parse_blif$191"/>
    <path d="M0,0 A30 25 0 0 1 0,25" class="cell_$abc$173$auto$blifparse.cc:386:parse_blif$191"/>
    <g s:x="3" s:y="5" s:pid="A"/>
    <g s:x="3" s:y="20" s:pid="B"/>
    <g s:x="30" s:y="12.5" s:pid="Y"/>
  </g>
  <g s:type="inputExt" transform="translate(12,228)" s:width="30" s:height="20" id="cell_A">
    <text x="15" y="-4" class="nodelabel cell_A" s:attribute="ref">A</text>
    <s:alias val="$_inputExt_"/>
    <path d="M0,0 L0,20 L15,20 L30,10 L15,0 Z" class="cell_A"/>
    <g s:x="28" s:y="10" s:pid="Y"/>
  </g>
  <g s:type="inputExt" transform="translate(12,144.5)" s:width="30" s:height="20" id="cell_B">
    <text x="15" y="-4" class="nodelabel cell_B" s:attribute="ref">B</text>
    <s:alias val="$_inputExt_"/>
    <path d="M0,0 L0,20 L15,20 L30,10 L15,0 Z" class="cell_B"/>
    <g s:x="28" s:y="10" s:pid="Y"/>
  </g>
  <g s:type="outputExt" transform="translate(566,64.5)" s:width="30" s:height="20" id="cell_P">
    <text x="15" y="-4" class="nodelabel cell_P" s:attribute="ref">P</text>
    <s:alias val="$_outputExt_"/>
    <path d="M30,0 L30,20 L15,20 L0,10 L15,0 Z" class="cell_P"/>
    <g s:x="0" s:y="10" s:pid="A"/>
  </g>
  <g s:type="join" transform="translate(523,54)" s:width="4" s:height="40" id="cell_$join$,7,8,9,10,11,">
    <rect width="5" height="100" class="splitjoinBody" s:generic="body"/>
    <s:alias val="$_join_"/>
    <g s:x="5" s:y="20" s:pid="out"/>
    <g transform="translate(0,10)" s:x="0" s:y="10" s:pid="in0">
      <text x="-3" y="-4" class="inputPortLabel">0</text>
    </g>
    <g transform="translate(0,30)" s:x="0" s:y="10" s:pid="in0">
      <text x="-3" y="-4" class="inputPortLabel">1</text>
    </g>
    <g transform="translate(0,50)" s:x="0" s:y="10" s:pid="in0">
      <text x="-3" y="-4" class="inputPortLabel">2</text>
    </g>
    <g transform="translate(0,70)" s:x="0" s:y="10" s:pid="in0">
      <text x="-3" y="-4" class="inputPortLabel">3</text>
    </g>
    <g transform="translate(0,90)" s:x="0" s:y="10" s:pid="in0">
      <text x="-3" y="-4" class="inputPortLabel">4</text>
    </g>
  </g>
  <g s:type="split" transform="translate(77,134)" s:width="5" s:height="40" id="cell_$split$,5,6,">
    <rect width="5" height="40" class="splitjoinBody" s:generic="body"/>
    <s:alias val="$_split_"/>
    <g s:x="0" s:y="20" s:pid="in"/>
    <g transform="translate(4,10)" s:x="4" s:y="10" s:pid="out0">
      <text x="5" y="-4">0</text>
    </g>
    <g transform="translate(4,30)" s:x="4" s:y="10" s:pid="out0">
      <text x="5" y="-4">1</text>
    </g>
  </g>
  <g s:type="split" transform="translate(77,217.5)" s:width="5" s:height="40" id="cell_$split$,2,3,4,">
    <rect width="5" height="60" class="splitjoinBody" s:generic="body"/>
    <s:alias val="$_split_"/>
    <g s:x="0" s:y="20" s:pid="in"/>
    <g transform="translate(4,10)" s:x="4" s:y="10" s:pid="out0">
      <text x="5" y="-4">0</text>
    </g>
    <g transform="translate(4,30)" s:x="4" s:y="10" s:pid="out0">
      <text x="5" y="-4">2</text>
    </g>
    <g transform="translate(4,50)" s:x="4" s:y="10" s:pid="out0">
      <text x="5" y="-4">1</text>
    </g>
  </g>
  <line x1="82" x2="109" y1="144.5" y2="144.5" class="net_5"/>
  <line x1="109" x2="109" y1="144.5" y2="17" class="net_5"/>
  <circle cx="109" cy="144.5" r="2" style="fill:#000" class="net_5"/>
  <line x1="109" x2="452.6666666666667" y1="17" y2="17" class="net_5"/>
  <line x1="82" x2="109" y1="144.5" y2="144.5" class="net_5"/>
  <line x1="109" x2="109" y1="144.5" y2="328" class="net_5"/>
  <line x1="109" x2="149" y1="328" y2="328" class="net_5"/>
  <line x1="82" x2="151" y1="144.5" y2="144.5" class="net_5"/>
  <line x1="82" x2="119" y1="228" y2="228" class="net_2"/>
  <line x1="119" x2="119" y1="228" y2="32" class="net_2"/>
  <line x1="119" x2="452.6666666666667" y1="32" y2="32" class="net_2"/>
  <line x1="82" x2="119" y1="228" y2="228" class="net_2"/>
  <line x1="119" x2="119" y1="228" y2="84.5" class="net_2"/>
  <circle cx="119" cy="84.5" r="2" style="fill:#000" class="net_2"/>
  <line x1="119" x2="151" y1="84.5" y2="84.5" class="net_2"/>
  <line x1="82" x2="99" y1="248" y2="248" class="net_4"/>
  <line x1="99" x2="99" y1="248" y2="313" class="net_4"/>
  <circle cx="99" cy="313" r="2" style="fill:#000" class="net_4"/>
  <line x1="99" x2="149" y1="313" y2="313" class="net_4"/>
  <line x1="82" x2="99" y1="248" y2="248" class="net_4"/>
  <line x1="99" x2="99" y1="248" y2="360" class="net_4"/>
  <line x1="99" x2="222" y1="360" y2="360" class="net_4"/>
  <line x1="82" x2="129" y1="164.5" y2="164.5" class="net_6"/>
  <line x1="129" x2="129" y1="164.5" y2="253" class="net_6"/>
  <circle cx="129" cy="164.5" r="2" style="fill:#000" class="net_6"/>
  <circle cx="129" cy="253" r="2" style="fill:#000" class="net_6"/>
  <line x1="129" x2="149" y1="253" y2="253" class="net_6"/>
  <line x1="82" x2="129" y1="164.5" y2="164.5" class="net_6"/>
  <line x1="129" x2="129" y1="164.5" y2="69.5" class="net_6"/>
  <line x1="129" x2="151" y1="69.5" y2="69.5" class="net_6"/>
  <line x1="82" x2="129" y1="164.5" y2="164.5" class="net_6"/>
  <line x1="129" x2="129" y1="164.5" y2="345" class="net_6"/>
  <line x1="129" x2="222" y1="345" y2="345" class="net_6"/>
  <line x1="82" x2="149" y1="268" y2="268" class="net_3"/>
  <line x1="82" x2="139" y1="268" y2="268" class="net_3"/>
  <line x1="139" x2="139" y1="268" y2="129.5" class="net_3"/>
  <circle cx="139" cy="268" r="2" style="fill:#000" class="net_3"/>
  <line x1="139" x2="151" y1="129.5" y2="129.5" class="net_3"/>
  <line x1="185" x2="223" y1="260.5" y2="260.5" class="net_13"/>
  <line x1="185" x2="205" y1="260.5" y2="260.5" class="net_13"/>
  <line x1="205" x2="205" y1="260.5" y2="290.5" class="net_13"/>
  <circle cx="205" cy="260.5" r="2" style="fill:#000" class="net_13"/>
  <line x1="205" x2="313" y1="290.5" y2="290.5" class="net_13"/>
  <line x1="185" x2="195" y1="320.5" y2="320.5" class="net_12"/>
  <line x1="195" x2="195" y1="320.5" y2="275.5" class="net_12"/>
  <circle cx="195" cy="320.5" r="2" style="fill:#000" class="net_12"/>
  <line x1="195" x2="223" y1="275.5" y2="275.5" class="net_12"/>
  <line x1="185" x2="268" y1="320.5" y2="320.5" class="net_12"/>
  <line x1="268" x2="268" y1="320.5" y2="305.5" class="net_12"/>
  <line x1="268" x2="313" y1="305.5" y2="305.5" class="net_12"/>
  <line x1="181" x2="205" y1="77" y2="77" class="net_16"/>
  <line x1="205" x2="205" y1="77" y2="200.5" class="net_16"/>
  <circle cx="205" cy="77" r="2" style="fill:#000" class="net_16"/>
  <line x1="205" x2="222.66666666666666" y1="200.5" y2="200.5" class="net_16"/>
  <line x1="181" x2="454.6666666666667" y1="77" y2="77" class="net_16"/>
  <line x1="181" x2="195" y1="137" y2="137" class="net_15"/>
  <line x1="195" x2="195" y1="137" y2="215.5" class="net_15"/>
  <circle cx="195" cy="137" r="2" style="fill:#000" class="net_15"/>
  <line x1="195" x2="222.66666666666666" y1="215.5" y2="215.5" class="net_15"/>
  <line x1="181" x2="425" y1="137" y2="137" class="net_15"/>
  <line x1="425" x2="425" y1="137" y2="92" class="net_15"/>
  <line x1="425" x2="454.6666666666667" y1="92" y2="92" class="net_15"/>
  <line x1="252.66666666666666" x2="298" y1="208" y2="208" class="net_17"/>
  <line x1="298" x2="298" y1="208" y2="148" class="net_17"/>
  <circle cx="298" cy="208" r="2" style="fill:#000" class="net_17"/>
  <line x1="298" x2="453" y1="148" y2="148" class="net_17"/>
  <line x1="252.66666666666666" x2="308" y1="208" y2="208" class="net_17"/>
  <line x1="252.66666666666666" x2="298" y1="208" y2="208" class="net_17"/>
  <line x1="298" x2="298" y1="208" y2="336.5" class="net_17"/>
  <line x1="298" x2="379" y1="336.5" y2="336.5" class="net_17"/>
  <line x1="258" x2="288" y1="268" y2="268" class="net_14"/>
  <line x1="288" x2="288" y1="268" y2="163" class="net_14"/>
  <circle cx="288" cy="268" r="2" style="fill:#000" class="net_14"/>
  <line x1="288" x2="453" y1="163" y2="163" class="net_14"/>
  <line x1="258" x2="288" y1="268" y2="268" class="net_14"/>
  <line x1="288" x2="288" y1="268" y2="223" class="net_14"/>
  <circle cx="288" cy="223" r="2" style="fill:#000" class="net_14"/>
  <line x1="288" x2="308" y1="223" y2="223" class="net_14"/>
  <line x1="258" x2="288" y1="268" y2="268" class="net_14"/>
  <line x1="288" x2="288" y1="268" y2="367.5" class="net_14"/>
  <line x1="288" x2="313" y1="367.5" y2="367.5" class="net_14"/>
  <line x1="340" x2="364" y1="298" y2="298" class="net_19"/>
  <line x1="364" x2="364" y1="298" y2="200.5" class="net_19"/>
  <circle cx="364" cy="298" r="2" style="fill:#000" class="net_19"/>
  <line x1="364" x2="379" y1="200.5" y2="200.5" class="net_19"/>
  <line x1="340" x2="364" y1="298" y2="298" class="net_19"/>
  <line x1="364" x2="364" y1="298" y2="396.5" class="net_19"/>
  <line x1="364" x2="382" y1="396.5" y2="396.5" class="net_19"/>
  <line x1="344" x2="379" y1="215.5" y2="215.5" class="net_20"/>
  <line x1="415" x2="454.6666666666667" y1="208" y2="208" class="net_21"/>
  <line x1="258" x2="278" y1="352.5" y2="352.5" class="net_18"/>
  <line x1="278" x2="278" y1="352.5" y2="320.5" class="net_18"/>
  <line x1="278" x2="425" y1="320.5" y2="320.5" class="net_18"/>
  <line x1="425" x2="425" y1="320.5" y2="223" class="net_18"/>
  <circle cx="278" cy="352.5" r="2" style="fill:#000" class="net_18"/>
  <line x1="425" x2="454.6666666666667" y1="223" y2="223" class="net_18"/>
  <line x1="258" x2="278" y1="352.5" y2="352.5" class="net_18"/>
  <line x1="278" x2="278" y1="352.5" y2="411.5" class="net_18"/>
  <line x1="278" x2="382" y1="411.5" y2="411.5" class="net_18"/>
  <line x1="258" x2="313" y1="352.5" y2="352.5" class="net_18"/>
  <line x1="340" x2="354" y1="360" y2="360" class="net_23"/>
  <line x1="354" x2="354" y1="360" y2="351.5" class="net_23"/>
  <line x1="354" x2="379" y1="351.5" y2="351.5" class="net_23"/>
  <line x1="415" x2="455.6666666666667" y1="344" y2="344" class="net_24"/>
  <line x1="415" x2="425" y1="404" y2="404" class="net_22"/>
  <line x1="425" x2="425" y1="404" y2="359" class="net_22"/>
  <line x1="425" x2="455.6666666666667" y1="359" y2="359" class="net_22"/>
  <line x1="529" x2="566" y1="74.5" y2="74.5" class="net_7,8,9,10,11"/>
  <line x1="482.6666666666667" x2="523.5" y1="24.5" y2="24.5" class="net_7"/>
  <line x1="523.5" x2="523.5" y1="24.5" y2="64" class="net_7"/>
  <line x1="484.6666666666667" x2="523" y1="84.5" y2="84.5" class="net_8"/>
  <line x1="488" x2="498" y1="155.5" y2="155.5" class="net_9"/>
  <line x1="498" x2="498" y1="155.5" y2="104.5" class="net_9"/>
  <line x1="498" x2="523" y1="104.5" y2="104.5" class="net_9"/>
  <line x1="484.6666666666667" x2="508" y1="215.5" y2="215.5" class="net_10"/>
  <line x1="508" x2="508" y1="215.5" y2="124.5" class="net_10"/>
  <line x1="508" x2="523" y1="124.5" y2="124.5" class="net_10"/>
  <line x1="482.6666666666667" x2="523.5" y1="351.5" y2="351.5" class="net_11"/>
  <line x1="523.5" x2="523.5" y1="351.5" y2="145" class="net_11"/>
  <line x1="40" x2="77" y1="154.5" y2="154.5" class="net_5,6"/>
  <line x1="40" x2="77" y1="238" y2="238" class="net_2,3,4"/>
</svg>
